<?xml version="1.0" encoding="utf-8" ?>
<svg baseProfile="full" height="600" version="1.1" width="800" xmlns="http://www.w3.org/2000/svg" xmlns:ev="http://www.w3.org/2001/xml-events" xmlns:xlink="http://www.w3.org/1999/xlink"><defs><linearGradient id="headerGradient"><stop offset="0" stop-color="#1a237e" /><stop offset="100" stop-color="#283593" /></linearGradient></defs><rect fill="#f5f5f5" height="100%" width="100%" x="0" y="0" /><rect fill="url(#headerGradient)" height="60" width="100%" x="0" y="0" /><text fill="white" font-family="Arial, sans-serif" font-size="24px" font-weight="bold" x="20" y="40">Luxofy Q3 Plan of Action</text><rect fill="#2196F3" height="70" rx="5" ry="5" stroke="#333" stroke-width="2" width="140" x="50" y="80" /><text fill="white" font-family="Arial, sans-serif" font-size="14px" text-anchor="middle" x="120.0" y="110">Social</text><text fill="white" font-family="Arial, sans-serif" font-size="14px" text-anchor="middle" x="120.0" y="130">35k</text><circle cx="180" cy="90" fill="#4CAF50" r="5" /><line stroke="#333" stroke-width="2" x1="190" x2="230" y1="115.0" y2="115.0" /><rect fill="#2196F3" height="70" rx="5" ry="5" stroke="#333" stroke-width="2" width="140" x="230" y="80" /><text fill="white" font-family="Arial, sans-serif" font-size="14px" text-anchor="middle" x="300.0" y="110">Social</text><text fill="white" font-family="Arial, sans-serif" font-size="14px" text-anchor="middle" x="300.0" y="130">50k</text><line stroke="#333" stroke-width="2" x1="370" x2="410" y1="115.0" y2="115.0" /><rect fill="#2196F3" height="70" rx="5" ry="5" stroke="#333" stroke-width="2" width="140" x="410" y="80" /><text fill="white" font-family="Arial, sans-serif" font-size="14px" text-anchor="middle" x="480.0" y="110">Social</text><text fill="white" font-family="Arial, sans-serif" font-size="14px" text-anchor="middle" x="480.0" y="130">75k</text><line stroke="#333" stroke-width="2" x1="550" x2="590" y1="115.0" y2="115.0" /><rect fill="#2196F3" height="70" rx="5" ry="5" stroke="#333" stroke-width="2" width="140" x="590" y="80" /><text fill="white" font-family="Arial, sans-serif" font-size="14px" text-anchor="middle" x="660.0" y="110">1</text><text fill="white" font-family="Arial, sans-serif" font-size="14px" text-anchor="middle" x="660.0" y="130">Project Inventory Clean Up</text><line stroke="#333" stroke-width="2" x1="660.0" x2="660.0" y1="150" y2="200" /><rect fill="#2196F3" height="70" rx="5" ry="5" stroke="#333" stroke-width="2" width="140" x="50" y="200" /><text fill="white" font-family="Arial, sans-serif" font-size="14px" text-anchor="middle" x="120.0" y="230">3</text><text fill="white" font-family="Arial, sans-serif" font-size="14px" text-anchor="middle" x="120.0" y="250">Projects Inventory Clean Up</text><line stroke="#333" stroke-width="2" x1="190" x2="230" y1="235.0" y2="235.0" /><rect fill="#2196F3" height="70" rx="5" ry="5" stroke="#333" stroke-width="2" width="140" x="230" y="200" /><text fill="white" font-family="Arial, sans-serif" font-size="14px" text-anchor="middle" x="300.0" y="230">5</text><text fill="white" font-family="Arial, sans-serif" font-size="14px" text-anchor="middle" x="300.0" y="250">Projects Inventory Clean Up</text><line stroke="#333" stroke-width="2" x1="370" x2="410" y1="235.0" y2="235.0" /><rect fill="#2196F3" height="70" rx="5" ry="5" stroke="#333" stroke-width="2" width="140" x="410" y="200" /><text fill="white" font-family="Arial, sans-serif" font-size="14px" text-anchor="middle" x="480.0" y="230">10</text><text fill="white" font-family="Arial, sans-serif" font-size="14px" text-anchor="middle" x="480.0" y="250">Projects Inventory Clean Up</text><line stroke="#333" stroke-width="2" x1="550" x2="590" y1="235.0" y2="235.0" /><rect fill="#2196F3" height="70" rx="5" ry="5" stroke="#333" stroke-width="2" width="140" x="590" y="200" /><text fill="white" font-family="Arial, sans-serif" font-size="14px" text-anchor="middle" x="660.0" y="230">Dubai</text><text fill="white" font-family="Arial, sans-serif" font-size="14px" text-anchor="middle" x="660.0" y="250">Launch</text><line stroke="#333" stroke-width="2" x1="660.0" x2="660.0" y1="270" y2="320" /><rect fill="#2196F3" height="70" rx="5" ry="5" stroke="#333" stroke-width="2" width="140" x="50" y="320" /><text fill="white" font-family="Arial, sans-serif" font-size="14px" text-anchor="middle" x="120.0" y="350">30</text><text fill="white" font-family="Arial, sans-serif" font-size="14px" text-anchor="middle" x="120.0" y="370">Projects Undertaking</text><line stroke="#333" stroke-width="2" x1="190" x2="230" y1="355.0" y2="355.0" /><rect fill="#2196F3" height="70" rx="5" ry="5" stroke="#333" stroke-width="2" width="140" x="230" y="320" /><text fill="white" font-family="Arial, sans-serif" font-size="14px" text-anchor="middle" x="300.0" y="350">Indias</text><text fill="white" font-family="Arial, sans-serif" font-size="14px" text-anchor="middle" x="300.0" y="370">Most Trusted Luxury Second Home Expert</text><rect fill="#9C27B0" height="80" rx="5" ry="5" stroke="#333" stroke-width="2" width="320" x="260.0" y="440" /><text fill="white" font-family="Arial, sans-serif" font-size="16px" text-anchor="middle" x="420.0" y="475">Indias Most Trusted</text><text fill="white" font-family="Arial, sans-serif" font-size="16px" text-anchor="middle" x="420.0" y="500">Luxury Second Home Expert</text><line stroke="#333" stroke-width="2" x1="300.0" x2="420.0" y1="390" y2="440" /><rect fill="white" height="130" rx="5" ry="5" stroke="#333" stroke-width="1" width="230" x="550" y="450" /><text fill="#333" font-family="Arial, sans-serif" font-size="16px" font-weight="bold" x="560" y="480">Key Requirements:</text><text fill="#333" font-family="Arial, sans-serif" font-size="14px" x="560" y="510">• Podcasts with 5 in Mumbai, 5 in Delhi</text><text fill="#333" font-family="Arial, sans-serif" font-size="14px" x="560" y="530">• Montaigne Podcast for structuring</text><text fill="#333" font-family="Arial, sans-serif" font-size="14px" x="560" y="550">• AdonMo</text><text fill="#333" font-family="Arial, sans-serif" font-size="14px" x="560" y="570">• Billboard Hoardings</text><text fill="#333" font-family="Arial, sans-serif" font-size="14px" x="560" y="590">• Celebrity Walk Throughs</text><text fill="#333" font-family="Arial, sans-serif" font-size="14px" x="560" y="610">• YouTube ADs</text><text fill="#333" font-family="Arial, sans-serif" font-size="14px" x="560" y="630">• Reel ADs</text><text fill="#333" font-family="Arial, sans-serif" font-size="14px" x="560" y="650">• 5000 Agents</text><text fill="#333" font-family="Arial, sans-serif" font-size="14px" x="560" y="670">• Google ADs</text></svg>